<?xml version="1.0" standalone="no"?>
<!DOCTYPE svg PUBLIC "-//W3C//DTD SVG 20010904//EN"
 "http://www.w3.org/TR/2001/REC-SVG-20010904/DTD/svg10.dtd">
<svg version="1.0" xmlns="http://www.w3.org/2000/svg"
 width="600.000000pt" height="600.000000pt" viewBox="0 0 600.000000 600.000000"
 preserveAspectRatio="xMidYMid meet">
<metadata>
Created by potrace 1.14, written by Peter Selinger 2001-2017
</metadata>
<g transform="translate(0.000000,600.000000) scale(0.100000,-0.100000)"
fill="#000000" stroke="none">
<path d="M2765 5369 c-443 -42 -891 -225 -1250 -509 -103 -81 -284 -262 -365
-365 -261 -329 -430 -720 -497 -1145 -25 -160 -25 -510 0 -670 66 -421 228
-797 486 -1130 84 -109 282 -307 391 -391 742 -575 1714 -670 2541 -248 228
116 409 248 594 434 364 364 590 813 672 1335 25 160 25 510 0 670 -67 425
-236 816 -497 1145 -81 103 -262 284 -365 365 -485 385 -1098 567 -1710 509z
m477 -595 c373 -51 687 -201 976 -465 l53 -48 -3 -673 -3 -673 -35 -63 c-24
-42 -78 -105 -167 -194 l-132 -132 -23 21 c-18 16 -28 19 -46 12 -12 -5 -101
-86 -198 -181 -97 -95 -180 -174 -185 -176 -5 -2 -9 -13 -9 -24 0 -28 188
-220 212 -216 25 4 398 366 398 386 0 8 -7 24 -16 33 -16 17 -8 27 130 170
145 150 190 213 229 324 7 19 13 237 17 605 l5 575 39 -60 c428 -652 383
-1496 -111 -2106 -244 -301 -622 -532 -993 -608 -99 -21 -304 -45 -380 -45
-117 -1 -422 45 -491 73 -13 5 -55 19 -93 31 -65 20 -222 88 -256 110 -8 5
-35 21 -60 34 -134 72 -379 281 -474 405 -182 237 -276 421 -346 681 -39 146
-54 269 -54 450 0 155 14 291 40 385 46 168 58 207 86 275 94 234 265 481 437
634 36 32 68 62 71 65 10 12 116 89 184 135 138 91 367 189 541 230 190 45
459 58 657 30z"/>
<path d="M2360 4420 c-240 -96 -523 -346 -678 -600 -40 -64 -102 -186 -102
-198 0 -11 31 -21 305 -92 127 -33 244 -64 260 -70 44 -14 188 -51 190 -48 8
17 69 94 105 132 34 37 122 111 168 141 1 1 -2 15 -9 31 -6 16 -26 88 -44 159
-19 72 -50 191 -70 265 -20 74 -47 172 -58 216 l-22 82 -45 -18z"/>
<path d="M2857 3535 c-92 -25 -160 -67 -237 -144 -86 -87 -123 -154 -146 -263
-45 -212 45 -435 226 -558 179 -121 421 -121 600 0 267 181 318 564 106 797
-73 80 -162 137 -266 169 -56 17 -219 17 -283 -1z m234 -434 c35 -43 42 -82
23 -131 -47 -117 -221 -98 -234 25 -6 53 2 76 38 111 35 34 40 36 91 32 47 -4
59 -10 82 -37z"/>
</g>
</svg>
