<?xml version="1.0" standalone="no"?>
<!DOCTYPE svg PUBLIC "-//W3C//DTD SVG 20010904//EN"
 "http://www.w3.org/TR/2001/REC-SVG-20010904/DTD/svg10.dtd">
<svg version="1.0" xmlns="http://www.w3.org/2000/svg"
 width="600.000000pt" height="600.000000pt" viewBox="0 0 600.000000 600.000000"
 preserveAspectRatio="xMidYMid meet">
<metadata>
Created by potrace 1.14, written by Peter Selinger 2001-2017
</metadata>
<g transform="translate(0.000000,600.000000) scale(0.100000,-0.100000)"
fill="#000000" stroke="none">
<path d="M2765 5369 c-443 -42 -891 -225 -1250 -509 -103 -81 -284 -262 -365
-365 -261 -329 -430 -720 -497 -1145 -25 -160 -25 -510 0 -670 66 -421 228
-797 486 -1130 84 -109 282 -307 391 -391 742 -575 1714 -670 2541 -248 228
116 409 248 594 434 364 364 590 813 672 1335 25 160 25 510 0 670 -67 425
-236 816 -497 1145 -81 103 -262 284 -365 365 -485 385 -1098 567 -1710 509z
m1860 -1423 l0 -114 -42 -27 c-23 -14 -70 -56 -104 -92 -70 -75 -179 -219
-179 -236 0 -6 -33 20 -72 59 -75 73 -123 111 -170 135 l-28 14 79 48 c44 26
83 47 88 47 5 0 26 -34 46 -77 l38 -76 25 52 c62 135 199 308 285 360 19 12
34 21 34 21 0 0 0 -51 0 -114z m-795 -271 l0 -115 -1175 0 -1175 0 0 115 0
115 1175 0 1175 0 0 -115z m795 -468 l0 -114 -39 -24 c-53 -33 -188 -179 -246
-265 l-48 -72 -72 73 c-40 40 -99 88 -131 107 l-59 35 85 51 85 51 37 -74 c21
-41 40 -75 43 -75 3 0 23 35 45 77 47 90 137 214 191 264 39 36 95 78 104 79
3 0 5 -51 5 -113z m-797 -269 l3 -118 -1176 0 -1175 0 0 120 0 120 1173 -2
1172 -3 3 -117z m797 -473 c0 -103 -2 -116 -18 -121 -46 -14 -245 -232 -303
-330 -10 -17 -17 -13 -81 51 -38 39 -95 86 -126 105 -31 19 -56 37 -57 40 0 3
26 21 58 39 31 19 67 41 79 49 22 13 23 11 60 -62 20 -42 40 -76 43 -76 3 0
19 26 34 57 65 134 171 269 260 334 21 16 42 29 45 29 3 0 6 -52 6 -115z
m-795 -265 l0 -120 -1175 0 -1175 0 0 120 0 120 1175 0 1175 0 0 -120z"/>
</g>
</svg>
