<?xml version="1.0" standalone="no"?>
<!DOCTYPE svg PUBLIC "-//W3C//DTD SVG 20010904//EN"
 "http://www.w3.org/TR/2001/REC-SVG-20010904/DTD/svg10.dtd">
<svg version="1.0" xmlns="http://www.w3.org/2000/svg"
 width="600.000000pt" height="600.000000pt" viewBox="0 0 600.000000 600.000000"
 preserveAspectRatio="xMidYMid meet">
<metadata>
Created by potrace 1.14, written by Peter Selinger 2001-2017
</metadata>
<g transform="translate(0.000000,600.000000) scale(0.100000,-0.100000)"
fill="#000000" stroke="none">
<path d="M2765 5369 c-443 -42 -891 -225 -1250 -509 -103 -81 -284 -262 -365
-365 -261 -329 -430 -720 -497 -1145 -25 -160 -25 -510 0 -670 66 -421 228
-797 486 -1130 84 -109 282 -307 391 -391 742 -575 1714 -670 2541 -248 228
116 409 248 594 434 364 364 590 813 672 1335 25 160 25 510 0 670 -67 425
-236 816 -497 1145 -81 103 -262 284 -365 365 -485 385 -1098 567 -1710 509z
m84 -1271 c0 -420 -4 -592 -12 -615 -40 -107 -139 -177 -251 -177 -103 1 -188
53 -239 148 -22 41 -22 44 -25 634 l-3 592 266 0 265 0 -1 -582z m-699 -121
c0 -375 3 -463 15 -512 71 -271 362 -406 613 -284 86 42 156 115 201 208 l36
76 5 238 5 237 648 -647 647 -648 -483 -483 -482 -482 -837 837 -836 838 -45
95 c-57 121 -72 181 -72 305 0 123 15 184 70 300 78 163 217 285 391 344 49
17 97 31 107 31 16 0 17 -28 17 -453z m2498 -1210 l42 -43 -743 -742 -742
-742 -45 45 -45 45 740 740 c407 407 742 740 745 740 3 0 25 -19 48 -43z"/>
</g>
</svg>
