<?xml version="1.0" standalone="no"?>
<!DOCTYPE svg PUBLIC "-//W3C//DTD SVG 20010904//EN"
 "http://www.w3.org/TR/2001/REC-SVG-20010904/DTD/svg10.dtd">
<svg version="1.0" xmlns="http://www.w3.org/2000/svg"
 width="600.000000pt" height="600.000000pt" viewBox="0 0 600.000000 600.000000"
 preserveAspectRatio="xMidYMid meet">
<metadata>
Created by potrace 1.14, written by Peter Selinger 2001-2017
</metadata>
<g transform="translate(0.000000,600.000000) scale(0.100000,-0.100000)"
fill="#000000" stroke="none">
<path d="M2765 5369 c-443 -42 -891 -225 -1250 -509 -103 -81 -284 -262 -365
-365 -261 -329 -430 -720 -497 -1145 -25 -160 -25 -510 0 -670 66 -421 228
-797 486 -1130 84 -109 282 -307 391 -391 742 -575 1714 -670 2541 -248 228
116 409 248 594 434 364 364 590 813 672 1335 25 160 25 510 0 670 -67 425
-236 816 -497 1145 -81 103 -262 284 -365 365 -485 385 -1098 567 -1710 509z
m1435 -2329 l0 -1630 -24 0 c-13 0 -27 7 -30 16 -3 9 -6 731 -6 1605 l0 1589
-1147 -2 -1148 -3 -3 -1602 -2 -1603 -25 0 -25 0 0 1630 0 1630 1205 0 1205 0
0 -1630z m-1044 1396 c111 -52 211 -188 236 -323 25 -136 -53 -309 -181 -397
-263 -183 -621 -10 -648 314 -10 115 36 240 115 317 100 97 138 111 302 112
111 1 131 -2 176 -23z m5 -1066 c329 -67 569 -249 722 -545 141 -274 140 -621
-3 -906 -150 -298 -455 -513 -772 -545 -38 -4 -68 -11 -68 -15 0 -5 -29 -9
-65 -9 -36 0 -65 4 -65 9 0 4 -26 11 -57 14 -349 39 -661 270 -800 592 -66
152 -87 252 -87 410 0 66 5 145 12 176 7 30 15 67 17 81 8 42 74 197 111 261
82 140 228 283 368 362 109 61 181 85 381 128 56 12 215 5 306 -13z"/>
<path d="M2917 4250 c-44 -13 -95 -57 -117 -100 -22 -43 -26 -122 -9 -167 35
-94 167 -149 262 -110 63 27 127 121 127 188 0 40 -34 111 -70 143 -55 50
-125 66 -193 46z"/>
<path d="M2804 3140 c-159 -41 -260 -96 -372 -203 -115 -111 -192 -254 -226
-419 -52 -252 47 -544 244 -721 140 -126 345 -207 525 -207 142 0 335 62 449
144 303 218 414 594 279 936 -85 212 -294 398 -518 460 -108 30 -283 35 -381
10z m256 -545 c49 -17 90 -56 119 -113 29 -58 24 -156 -11 -210 -37 -56 -85
-89 -146 -104 -95 -21 -199 28 -244 116 -33 64 -29 163 8 224 55 87 169 124
274 87z"/>
</g>
</svg>
