<?xml version="1.0" standalone="no"?>
<!DOCTYPE svg PUBLIC "-//W3C//DTD SVG 20010904//EN"
 "http://www.w3.org/TR/2001/REC-SVG-20010904/DTD/svg10.dtd">
<svg version="1.0" xmlns="http://www.w3.org/2000/svg"
 width="600.000000pt" height="600.000000pt" viewBox="0 0 600.000000 600.000000"
 preserveAspectRatio="xMidYMid meet">
<metadata>
Created by potrace 1.14, written by Peter Selinger 2001-2017
</metadata>
<g transform="translate(0.000000,600.000000) scale(0.100000,-0.100000)"
fill="#000000" stroke="none">
<path d="M2765 5369 c-443 -42 -891 -225 -1250 -509 -103 -81 -284 -262 -365
-365 -261 -329 -430 -720 -497 -1145 -25 -160 -25 -510 0 -670 66 -421 228
-797 486 -1130 84 -109 282 -307 391 -391 742 -575 1714 -670 2541 -248 228
116 409 248 594 434 364 364 590 813 672 1335 25 160 25 510 0 670 -67 425
-236 816 -497 1145 -81 103 -262 284 -365 365 -485 385 -1098 567 -1710 509z
m485 -634 c451 -66 850 -302 1119 -660 167 -223 265 -444 317 -715 21 -110 21
-108 -28 -103 -39 5 -68 -3 -160 -42 -13 -5 -18 -2 -18 9 0 33 -50 114 -92
150 -76 65 -188 78 -283 31 -93 -45 -145 -135 -145 -250 0 -36 -1 -65 -3 -65
-2 0 -23 10 -48 22 -34 17 -60 22 -117 22 -66 -1 -73 1 -77 20 -3 12 -10 43
-15 70 -6 27 -26 81 -44 120 -217 465 -827 559 -1174 181 -191 -209 -238 -523
-117 -780 169 -357 578 -506 942 -344 71 31 118 64 186 128 l47 45 0 -397 c0
-218 -3 -397 -6 -397 -3 0 -46 20 -94 44 -180 90 -305 87 -418 -9 -88 -76
-137 -202 -113 -290 6 -24 35 -68 72 -110 l60 -70 -48 -3 c-61 -4 -247 14
-338 34 -174 38 -404 130 -545 219 -148 93 -321 245 -425 375 -227 282 -351
597 -374 948 -27 396 66 756 277 1072 269 405 683 669 1167 745 109 17 379 17
495 0z m1059 -1433 c14 -10 34 -31 45 -46 20 -27 21 -40 24 -542 l3 -515 52 3
52 3 5 425 c4 382 7 428 22 451 24 34 88 69 129 69 46 0 109 -38 133 -80 20
-34 21 -52 24 -453 l3 -418 52 3 52 3 5 245 c6 276 7 283 80 320 69 35 149 18
193 -41 18 -25 18 -32 7 -100 -59 -363 -232 -748 -467 -1039 -73 -90 -274
-288 -358 -352 -184 -140 -450 -283 -649 -349 l-99 -32 -31 34 c-99 111 -195
219 -375 423 -214 245 -218 251 -191 320 12 34 86 114 121 132 92 47 282 -27
456 -177 l48 -42 5 691 c5 678 5 691 26 718 37 51 70 68 128 68 59 1 92 -16
130 -68 20 -26 21 -42 24 -392 l3 -365 52 3 52 3 5 515 c5 495 6 516 25 542
32 44 92 70 145 63 25 -3 56 -13 69 -23z m-1180 -59 c61 -38 101 -99 108 -166
11 -104 -34 -188 -125 -233 -120 -60 -250 -16 -312 107 -24 47 -26 134 -4 187
53 127 214 178 333 105z"/>
<path d="M2856 4509 c-326 -34 -633 -180 -871 -413 -135 -132 -211 -237 -298
-411 -81 -163 -147 -428 -147 -591 0 -84 18 -114 67 -114 50 0 73 33 73 101 0
57 28 242 47 309 116 417 402 736 803 894 117 47 243 75 381 85 64 5 125 14
137 20 46 24 37 102 -14 121 -29 11 -64 11 -178 -1z"/>
<path d="M2840 4115 c-331 -56 -616 -257 -780 -550 -72 -129 -130 -341 -130
-478 0 -84 14 -107 68 -107 49 0 68 33 75 137 33 457 391 820 852 865 88 8
115 14 133 31 29 27 28 62 -3 92 -20 21 -33 25 -82 24 -32 -1 -92 -7 -133 -14z"/>
</g>
</svg>
