<?xml version="1.0" standalone="no"?>
<!DOCTYPE svg PUBLIC "-//W3C//DTD SVG 20010904//EN"
 "http://www.w3.org/TR/2001/REC-SVG-20010904/DTD/svg10.dtd">
<svg version="1.0" xmlns="http://www.w3.org/2000/svg"
 width="600.000000pt" height="600.000000pt" viewBox="0 0 600.000000 600.000000"
 preserveAspectRatio="xMidYMid meet">
<metadata>
Created by potrace 1.14, written by Peter Selinger 2001-2017
</metadata>
<g transform="translate(0.000000,600.000000) scale(0.100000,-0.100000)"
fill="#000000" stroke="none">
<path d="M2765 5369 c-443 -42 -891 -225 -1250 -509 -103 -81 -284 -262 -365
-365 -261 -329 -430 -720 -497 -1145 -25 -160 -25 -510 0 -670 66 -421 228
-797 486 -1130 84 -109 282 -307 391 -391 742 -575 1714 -670 2541 -248 228
116 409 248 594 434 364 364 590 813 672 1335 25 160 25 510 0 670 -67 425
-236 816 -497 1145 -81 103 -262 284 -365 365 -382 303 -813 471 -1322 515
l-73 6 0 -331 0 -330 28 -11 c93 -34 168 -106 201 -195 12 -30 21 -59 21 -64
0 -5 19 -14 43 -20 182 -46 368 -129 527 -234 142 -94 341 -293 432 -431 204
-308 288 -606 275 -969 -16 -419 -171 -771 -471 -1072 -187 -187 -373 -304
-615 -388 -190 -66 -279 -80 -521 -80 -185 0 -229 3 -316 22 -211 46 -423 136
-599 255 -119 81 -331 293 -412 412 -119 176 -210 389 -254 593 -26 123 -36
390 -20 517 47 368 199 674 466 940 227 228 445 352 763 435 23 6 42 15 42 20
0 5 9 34 21 64 33 89 108 161 202 195 l27 11 0 330 0 330 -32 -1 c-18 -1 -73
-6 -123 -10z m1823 -939 c41 -74 42 -75 136 -125 53 -27 95 -53 93 -58 -1 -4
-45 -31 -97 -60 l-95 -52 -51 -93 c-28 -51 -55 -93 -59 -93 -4 0 -31 41 -60
93 l-52 93 -94 52 c-52 29 -95 56 -96 60 -2 5 40 31 93 58 l95 50 56 103 55
103 17 -28 c10 -15 36 -62 59 -103z"/>
<path d="M4493 4335 c-10 -22 -34 -46 -62 -62 l-44 -26 37 -19 c22 -11 48 -37
63 -63 l27 -43 27 43 c16 25 44 52 65 63 l37 19 -43 24 c-26 15 -49 38 -61 61
-11 21 -22 38 -24 38 -3 0 -13 -16 -22 -35z"/>
<path d="M2985 4575 c-5 -2 -22 -6 -38 -9 -28 -7 -107 -71 -107 -87 0 -5 72
-9 160 -9 88 0 160 4 160 8 0 11 -60 67 -85 79 -23 12 -76 22 -90 18z"/>
<path d="M2952 4295 c-37 -31 -91 -133 -131 -248 -17 -49 -31 -89 -31 -90 0
-1 95 -2 210 -2 116 0 210 1 210 2 0 13 -69 192 -91 234 -34 69 -89 129 -117
129 -11 0 -34 -11 -50 -25z"/>
<path d="M2655 4218 c-83 -49 -243 -205 -304 -295 -23 -35 -39 -63 -35 -63 3
0 47 11 98 24 50 14 119 30 152 37 l62 11 16 62 c14 51 62 182 91 249 11 25
-3 21 -80 -25z"/>
<path d="M3263 4248 c51 -126 69 -175 88 -240 l22 -76 61 -12 c34 -6 102 -22
152 -36 51 -13 95 -24 98 -24 18 0 -89 137 -173 221 -106 106 -267 214 -248
167z"/>
<path d="M2254 4112 c-215 -129 -406 -324 -524 -534 -34 -61 -29 -75 10 -33
32 34 177 132 272 184 73 40 79 46 119 119 53 97 130 213 177 263 19 22 33 42
30 44 -3 3 -40 -16 -84 -43z"/>
<path d="M3698 4103 c60 -71 115 -153 171 -255 40 -73 46 -79 119 -119 98 -53
183 -110 250 -167 29 -24 55 -42 58 -40 6 7 -85 155 -141 228 -63 83 -182 202
-265 265 -68 52 -217 145 -232 145 -5 0 13 -26 40 -57z"/>
<path d="M2833 3801 c-39 -3 -74 -9 -77 -12 -13 -13 -66 -355 -66 -423 l0 -22
310 0 310 1 0 22 c0 66 -54 410 -66 422 -16 16 -269 24 -411 12z"/>
<path d="M2463 3740 c-61 -16 -144 -42 -185 -57 l-73 -28 -28 -73 c-29 -78
-90 -302 -83 -309 2 -2 44 3 92 11 49 9 144 22 212 30 68 8 126 16 129 19 3 3
11 61 19 129 8 68 21 161 29 208 17 99 17 100 8 100 -5 -1 -58 -14 -120 -30z"/>
<path d="M3414 3737 c14 -77 36 -238 42 -309 4 -42 10 -82 14 -88 4 -7 61 -18
131 -26 68 -8 164 -21 213 -30 48 -8 90 -13 92 -11 7 7 -52 225 -82 306 -25
69 -30 74 -73 93 -48 20 -250 80 -310 92 -33 6 -33 6 -27 -27z"/>
<path d="M1935 3507 c-92 -62 -245 -221 -295 -305 -23 -40 -41 -75 -39 -77 3
-2 42 11 88 30 46 18 118 43 161 56 l78 22 12 61 c6 34 22 103 36 155 14 51
24 94 22 96 -2 2 -30 -15 -63 -38z"/>
<path d="M4000 3544 c0 -3 11 -47 24 -98 14 -50 30 -118 36 -152 l12 -61 78
-22 c43 -13 115 -38 161 -56 46 -19 85 -32 88 -30 2 2 -16 37 -39 77 -51 86
-204 244 -297 307 -35 23 -63 39 -63 35z"/>
<path d="M2682 3178 c-9 -9 -12 -94 -12 -320 0 -294 1 -308 19 -318 12 -6 130
-10 315 -10 254 0 297 2 310 16 14 13 16 56 16 310 0 185 -4 303 -10 315 -10
18 -24 19 -318 19 -226 0 -311 -3 -320 -12z"/>
<path d="M2340 3154 c-159 -21 -263 -42 -270 -55 -21 -33 -21 -444 -1 -478 10
-16 338 -71 424 -71 l22 0 1 310 0 310 -36 -1 c-19 -1 -82 -7 -140 -15z"/>
<path d="M3484 2860 l0 -310 22 0 c86 0 415 55 425 71 20 33 20 446 -1 478
-10 17 -336 71 -424 71 l-22 0 0 -310z"/>
<path d="M1804 3036 c-168 -61 -264 -126 -264 -178 0 -28 60 -83 129 -117 42
-22 221 -91 234 -91 1 0 2 95 2 210 0 116 -2 210 -5 210 -3 -1 -46 -16 -96
-34z"/>
<path d="M4095 2860 c0 -115 1 -210 2 -210 13 0 192 69 234 91 69 34 129 89
129 117 0 53 -104 122 -273 181 -49 17 -89 31 -90 31 -1 0 -2 -94 -2 -210z"/>
<path d="M1600 2594 c0 -24 92 -156 154 -222 64 -68 235 -206 244 -198 2 2 -8
46 -22 97 -14 52 -30 121 -36 155 l-12 61 -76 22 c-65 19 -114 37 -239 88 -7
3 -13 2 -13 -3z"/>
<path d="M4335 2575 c-27 -13 -98 -38 -157 -56 l-106 -32 -12 -61 c-6 -34 -22
-103 -36 -155 -14 -51 -24 -95 -22 -97 9 -8 180 130 244 198 61 64 154 198
154 221 0 10 -10 8 -65 -18z"/>
<path d="M2097 2418 c11 -59 71 -262 91 -309 19 -43 24 -48 93 -73 81 -30 299
-89 306 -82 2 2 -3 44 -11 92 -9 49 -22 145 -30 213 -8 70 -19 127 -26 131 -7
4 -50 11 -97 14 -47 4 -138 16 -202 26 -64 11 -119 20 -123 20 -4 0 -5 -15 -1
-32z"/>
<path d="M3805 2435 c-38 -7 -125 -19 -193 -26 -67 -7 -128 -16 -134 -20 -6
-4 -17 -60 -24 -126 -8 -65 -21 -160 -29 -212 -9 -51 -14 -95 -12 -97 7 -7
228 53 307 83 l74 29 23 59 c21 54 72 225 87 298 7 31 7 31 -99 12z"/>
<path d="M2690 2354 c0 -88 54 -414 71 -424 32 -21 445 -21 478 -1 16 10 71
339 71 425 l0 22 -310 0 -310 0 0 -22z"/>
<path d="M1700 2202 c0 -15 93 -164 145 -232 63 -83 182 -202 265 -265 73 -56
221 -147 228 -141 2 3 -16 29 -40 58 -57 67 -114 152 -167 250 -40 73 -46 79
-119 119 -102 56 -184 111 -254 171 -32 27 -58 45 -58 40z"/>
<path d="M4250 2168 c-57 -52 -164 -123 -262 -177 -73 -40 -79 -46 -119 -119
-56 -102 -111 -184 -171 -254 -27 -32 -45 -58 -40 -58 15 0 165 93 232 145 92
70 210 191 280 286 59 80 136 207 129 214 -2 1 -24 -15 -49 -37z"/>
<path d="M2351 1798 c63 -94 221 -247 307 -298 40 -23 75 -41 77 -39 2 3 -11
42 -30 88 -18 46 -43 118 -56 161 l-22 78 -61 12 c-34 6 -102 22 -152 36 -51
13 -95 24 -98 24 -4 0 12 -28 35 -62z"/>
<path d="M3600 1839 c-36 -10 -101 -26 -146 -35 l-81 -16 -27 -92 c-15 -50
-41 -122 -57 -160 -16 -39 -27 -72 -24 -74 2 -3 37 15 77 38 46 27 108 79 168
139 98 98 192 222 168 220 -7 0 -42 -9 -78 -20z"/>
<path d="M2790 1763 c0 -1 14 -41 31 -90 59 -169 128 -273 181 -273 28 0 83
60 117 129 22 42 91 221 91 234 0 1 -94 2 -210 2 -115 0 -210 -1 -210 -2z"/>
</g>
</svg>
