<?xml version="1.0" encoding="UTF-8" standalone="no"?>
<!DOCTYPE svg  PUBLIC '-//W3C//DTD SVG 1.0//EN'  'http://www.w3.org/TR/2001/REC-SVG-20010904/DTD/svg10.dtd'>
<svg style="shape-rendering:geometricPrecision;text-rendering:geometricPrecision;image-rendering:optimizeQuality" xmlns="http://www.w3.org/2000/svg" fill-rule="evenodd" xml:space="preserve" height="23.866mm" width="17.672mm" version="1.0" clip-rule="evenodd" xmlns:xlink="http://www.w3.org/1999/xlink" viewBox="0 0 631 853">
 <defs>
  <style type="text/css">
   <![CDATA[
    .fil1 {fill:#CC3366}
    .fil0 {fill:#FF6699}
    .fil2 {fill:white;fill-rule:nonzero}
   ]]>
  </style>
 </defs>
 <g id="Warstwa_x0020_1">
  <g id="_639055360">
   <path class="fil0" d="m25 0h429l177 195v630c0 15-11 28-25 28h-581c-14 0-25-13-25-28v-797c0-16 11-28 25-28z"/>
   <path class="fil1" d="m631 195h-152c-13 0-25-13-25-28v-167l177 195z"/>
  </g>
  <path class="fil2" d="m102 454c5 0 9 2 12 5s5 7 5 12c0 4-2 8-5 12-3 3-7 4-12 4-4 0-8-1-12-4-3-4-5-8-5-12 0-5 2-9 5-12 4-3 8-5 12-5zm75-85v12c5-5 11-9 17-11 6-3 12-4 19-4 15 0 28 5 39 17 10 11 16 26 16 44 0 17-6 31-17 43s-24 17-39 17c-6 0-13-1-18-3-6-2-12-6-17-12v55h-30v-158h30zm30 23c-9 0-17 3-23 10-6 6-9 14-9 24 0 11 3 19 9 25 6 7 14 10 23 10s16-3 23-10c6-6 9-15 9-25s-3-18-9-24-14-10-23-10zm171-68h29v161h-29v-13c-6 6-12 10-17 12-6 2-12 3-19 3-15 0-28-5-39-17s-16-26-16-43c0-18 5-33 16-44 10-12 23-17 38-17 7 0 14 1 20 4 6 2 12 6 17 11v-57zm-31 68c-9 0-16 4-22 10s-9 14-9 24 3 19 9 25c6 7 13 10 22 10s17-3 23-10c6-6 9-14 9-25 0-10-3-18-9-24-6-7-14-10-23-10zm75-23h11v-27c1-7 4-12 8-16 5-3 12-5 20-5 6 0 13 1 20 4v22c-4-1-7-2-10-2s-6 1-7 2c-2 1-2 4-2 7v15h18v24h-18v92h-29v-92h-11v-24z"/>
 </g>
</svg>
